<svg width="135" height="26" viewBox="0 0 135 26" fill="none" xmlns="http://www.w3.org/2000/svg">
<path d="M16.2189 10.1046L16.3304 10.4517H16.695H25.4643L18.3356 15.6441L18.0434 15.8569L18.1539 16.2011L20.8755 24.6782L13.7968 19.4563L13.5 19.2373L13.2032 19.4563L6.11854 24.6826L8.80149 16.2446L8.91001 15.9033L8.62182 15.6907L1.52003 10.4517H10.305H10.6696L10.7811 10.1046L13.5 1.63568L16.2189 10.1046Z" stroke="#FFCE31"/>
<path d="M43.2189 10.1046L43.3304 10.4517H43.695H52.4643L45.3356 15.6441L45.0434 15.8569L45.1539 16.2011L47.8755 24.6782L40.7968 19.4563L40.5 19.2373L40.2032 19.4563L33.1185 24.6826L35.8015 16.2446L35.91 15.9033L35.6218 15.6907L28.52 10.4517H37.305H37.6696L37.7811 10.1046L40.5 1.63568L43.2189 10.1046Z" stroke="#FFCE31"/>
<path d="M70.2189 10.1046L70.3304 10.4517H70.695H79.4643L72.3356 15.6441L72.0434 15.8569L72.1539 16.2011L74.8755 24.6782L67.7968 19.4563L67.5 19.2373L67.2032 19.4563L60.1185 24.6826L62.8015 16.2446L62.91 15.9033L62.6218 15.6907L55.52 10.4517H64.305H64.6696L64.7811 10.1046L67.5 1.63568L70.2189 10.1046Z" stroke="#FFCE31"/>
<path d="M97.2189 10.1046L97.3304 10.4517H97.695H106.464L99.3356 15.6441L99.0434 15.8569L99.1539 16.2011L101.876 24.6782L94.7968 19.4563L94.5 19.2373L94.2032 19.4563L87.1185 24.6826L89.8015 16.2446L89.91 15.9033L89.6218 15.6907L82.52 10.4517H91.305H91.6696L91.7811 10.1046L94.5 1.63568L97.2189 10.1046Z" stroke="#FFCE31"/>
<path d="M124.219 10.1046L124.33 10.4517H124.695H133.464L126.336 15.6441L126.043 15.8569L126.154 16.2011L128.876 24.6782L121.797 19.4563L121.5 19.2373L121.203 19.4563L114.119 24.6826L116.801 16.2446L116.91 15.9033L116.622 15.6907L109.52 10.4517H118.305H118.67L118.781 10.1046L121.5 1.63568L124.219 10.1046Z" stroke="#FFCE31"/>
</svg>
