<svg width="75" height="15" viewBox="0 0 75 15" fill="none" xmlns="http://www.w3.org/2000/svg">
<path d="M14.5312 5.90625H9.16406L7.5 0.703125L5.83594 5.90625H0.46875L4.80469 9.11719L3.16406 14.2969L7.5 11.0859L11.8359 14.2969L10.1719 9.09375L14.5312 5.90625Z" fill="#FFCE31"/>
<path d="M29.5312 5.90625H24.1641L22.5 0.703125L20.8359 5.90625H15.4688L19.8047 9.11719L18.1641 14.2969L22.5 11.0859L26.8359 14.2969L25.1719 9.09375L29.5312 5.90625Z" fill="#FFCE31"/>
<path d="M44.5312 5.90625H39.1641L37.5 0.703125L35.8359 5.90625H30.4688L34.8047 9.11719L33.1641 14.2969L37.5 11.0859L41.8359 14.2969L40.1719 9.09375L44.5312 5.90625Z" fill="#FFCE31"/>
<path d="M59.5312 5.90625H54.1641L52.5 0.703125L50.8359 5.90625H45.4688L49.8047 9.11719L48.1641 14.2969L52.5 11.0859L56.8359 14.2969L55.1719 9.09375L59.5312 5.90625Z" fill="#FFCE31"/>
<path d="M74.5312 5.90625H69.1641L67.5 0.703125L65.8359 5.90625H60.4688L64.8047 9.11719L63.1641 14.2969L67.5 11.0859L71.8359 14.2969L70.1719 9.09375L74.5312 5.90625Z" fill="#FFCE31"/>
</svg>
