<svg width="22" height="22" viewBox="0 0 22 22" fill="none" xmlns="http://www.w3.org/2000/svg">
<path d="M16.8239 14.6666C16.4123 14.6682 16.0052 14.7529 15.6272 14.9157C15.2491 15.0784 14.9079 15.3159 14.6239 15.6138L7.17443 11.8861C7.35767 11.3304 7.35767 10.7306 7.17443 10.1749L14.6361 6.37995C15.1706 6.94316 15.8953 7.28754 16.6696 7.34615C17.4438 7.40475 18.2122 7.17339 18.8253 6.69705C19.4385 6.2207 19.8526 5.53339 19.9872 4.7687C20.1218 4.00402 19.9674 3.2166 19.5538 2.55948C19.1402 1.90237 18.497 1.4225 17.7493 1.21316C17.0016 1.00382 16.2028 1.07996 15.5081 1.42678C14.8135 1.77359 14.2725 2.36631 13.9905 3.08973C13.7085 3.81314 13.7055 4.61558 13.9822 5.34106L6.59387 9.09939C6.19484 8.61139 5.65465 8.25874 5.04734 8.08979C4.44003 7.92084 3.79533 7.94386 3.20161 8.15569C2.6079 8.36752 2.09423 8.7578 1.73102 9.27302C1.36782 9.78824 1.17285 10.4032 1.17285 11.0336C1.17285 11.6639 1.36782 12.2789 1.73102 12.7941C2.09423 13.3093 2.6079 13.6996 3.20161 13.9114C3.79533 14.1233 4.44003 14.1463 5.04734 13.9773C5.65465 13.8084 6.19484 13.4557 6.59387 12.9677L13.9639 16.6772C13.8393 17.0115 13.7752 17.3654 13.7744 17.7222C13.7744 18.3265 13.9536 18.9173 14.2894 19.4197C14.6251 19.9222 15.1023 20.3139 15.6607 20.5451C16.219 20.7764 16.8334 20.8369 17.4261 20.719C18.0188 20.6011 18.5633 20.3101 18.9906 19.8828C19.4179 19.4554 19.7089 18.911 19.8268 18.3183C19.9447 17.7256 19.8842 17.1112 19.6529 16.5529C19.4217 15.9945 19.03 15.5173 18.5276 15.1816C18.0251 14.8458 17.4343 14.6666 16.83 14.6666H16.8239Z" fill="black"/>
</svg>
