<svg width="18" height="18" viewBox="0 0 18 18" fill="none" xmlns="http://www.w3.org/2000/svg">
<path d="M15.975 7.34766C16.2287 7.29452 16.4566 7.15591 16.6204 6.95498C16.7842 6.75405 16.8741 6.50299 16.875 6.24375V4.5C16.875 4.20163 16.7565 3.91548 16.5455 3.7045C16.3345 3.49353 16.0484 3.375 15.75 3.375H2.25C1.95163 3.375 1.66548 3.49353 1.4545 3.7045C1.24353 3.91548 1.125 4.20163 1.125 4.5V6.24375C1.12594 6.50299 1.21582 6.75405 1.37964 6.95498C1.54345 7.15591 1.77126 7.29452 2.025 7.34766C2.40497 7.42645 2.74618 7.6338 2.99114 7.93477C3.23609 8.23574 3.36984 8.61194 3.36984 9C3.36984 9.38806 3.23609 9.76426 2.99114 10.0652C2.74618 10.3662 2.40497 10.5735 2.025 10.6523C1.77126 10.7055 1.54345 10.8441 1.37964 11.045C1.21582 11.2459 1.12594 11.497 1.125 11.7562V13.5C1.125 13.7984 1.24353 14.0845 1.4545 14.2955C1.66548 14.5065 1.95163 14.625 2.25 14.625H15.75C16.0484 14.625 16.3345 14.5065 16.5455 14.2955C16.7565 14.0845 16.875 13.7984 16.875 13.5V11.7562C16.8741 11.497 16.7842 11.2459 16.6204 11.045C16.4566 10.8441 16.2287 10.7055 15.975 10.6523C15.595 10.5735 15.2538 10.3662 15.0089 10.0652C14.7639 9.76426 14.6302 9.38806 14.6302 9C14.6302 8.61194 14.7639 8.23574 15.0089 7.93477C15.2538 7.6338 15.595 7.42645 15.975 7.34766V7.34766ZM2.25 11.7562C2.88579 11.6271 3.45739 11.2822 3.86796 10.7799C4.27853 10.2776 4.50282 9.64876 4.50282 9C4.50282 8.35124 4.27853 7.72242 3.86796 7.2201C3.45739 6.71779 2.88579 6.37285 2.25 6.24375V4.5H6.1875V13.5H2.25V11.7562ZM15.75 11.7562V13.5H7.3125V4.5H15.75V6.24375C15.1142 6.37285 14.5426 6.71779 14.132 7.2201C13.7215 7.72242 13.4972 8.35124 13.4972 9C13.4972 9.64876 13.7215 10.2776 14.132 10.7799C14.5426 11.2822 15.1142 11.6271 15.75 11.7562V11.7562Z" fill="black"/>
</svg>
